<?xml version="1.0" standalone="no"?>
<!DOCTYPE svg PUBLIC "-//W3C//DTD SVG 20010904//EN"
 "http://www.w3.org/TR/2001/REC-SVG-20010904/DTD/svg10.dtd">
<svg version="1.0" xmlns="http://www.w3.org/2000/svg"
 width="1644.000000pt" height="1644.000000pt" viewBox="0 0 1644.000000 1644.000000"
 preserveAspectRatio="xMidYMid meet">
<metadata>
Created by potrace 1.11, written by Peter Selinger 2001-2013
</metadata>
<g transform="translate(0.000000,1644.000000) scale(0.100000,-0.100000)"
fill="#000000" stroke="none">
<path d="M11477 11724 c-1 -2 -50 -6 -107 -9 -241 -13 -299 -22 -409 -57 -98
-31 -147 -62 -220 -136 -27 -28 -57 -48 -80 -53 -48 -11 -4736 -8 -4781 4 -44
11 -193 78 -202 92 -4 5 -8 7 -8 2 0 -4 -17 3 -37 16 -53 33 -114 60 -143 64
-41 5 -264 19 -490 29 -272 12 -803 6 -990 -11 -19 -2 -71 -6 -115 -10 -126
-11 -225 -22 -255 -30 -8 -2 -37 -7 -65 -10 -27 -4 -59 -9 -70 -12 -11 -3 -31
-7 -45 -9 -14 -1 -36 -5 -50 -9 -14 -3 -36 -8 -50 -11 -193 -38 -633 -173
-664 -205 -6 -5 -16 -9 -24 -9 -19 0 -231 -102 -305 -147 -184 -111 -285 -253
-312 -437 -6 -44 -14 -57 -73 -116 -37 -36 -87 -81 -111 -100 -100 -80 -268
-241 -382 -366 -51 -56 -197 -241 -228 -288 -14 -23 -28 -43 -31 -46 -5 -4
-55 -83 -117 -185 -28 -46 -123 -235 -148 -295 -15 -36 -33 -78 -40 -95 -48
-106 -131 -402 -160 -570 -3 -16 -7 -39 -9 -50 -2 -11 -7 -47 -11 -80 -4 -33
-9 -73 -11 -90 -16 -111 -21 -460 -10 -600 7 -88 15 -159 22 -208 3 -20 7 -47
9 -60 3 -23 22 -128 39 -214 3 -13 19 -75 36 -139 128 -479 340 -880 695
-1313 44 -54 305 -312 375 -371 61 -52 195 -155 295 -226 52 -37 254 -159 321
-194 42 -22 82 -44 90 -51 8 -6 14 -9 14 -6 0 3 26 -7 58 -22 116 -58 335
-144 432 -172 25 -7 50 -14 55 -15 99 -29 217 -58 276 -68 19 -3 45 -8 59 -11
14 -3 41 -8 60 -10 19 -3 46 -8 60 -11 14 -3 45 -8 70 -10 25 -2 61 -6 80 -8
189 -25 561 -25 772 -1 90 10 298 44 308 50 3 2 26 6 50 10 25 4 92 20 150 36
58 17 112 32 120 34 26 6 264 91 305 109 140 62 366 179 474 245 114 70 266
172 299 201 27 24 125 62 175 69 29 4 846 6 1817 6 1387 -1 1770 -4 1788 -13
12 -7 22 -10 22 -7 0 14 124 -70 250 -168 17 -14 187 -119 240 -150 73 -42
201 -107 272 -138 40 -17 96 -42 123 -54 66 -29 303 -113 371 -131 185 -48
330 -84 356 -88 18 -3 44 -8 58 -11 14 -3 39 -7 55 -10 17 -3 41 -7 55 -10 14
-2 45 -7 70 -10 25 -4 65 -16 90 -27 42 -18 66 -20 325 -20 219 0 294 3 345
15 36 9 79 18 95 21 79 15 109 21 200 42 11 3 31 7 44 10 13 3 51 12 85 20 34
8 71 17 83 20 49 10 365 124 482 173 374 158 717 372 994 623 173 156 325 326
450 503 31 44 61 85 67 92 5 7 10 15 10 19 0 3 14 26 30 51 17 24 37 58 46 76
9 18 20 34 24 37 9 7 178 353 185 380 1 3 9 22 18 43 40 93 148 419 161 489 2
13 11 50 19 83 9 33 19 75 22 93 3 18 17 63 32 100 l26 67 2 390 c1 215 -3
404 -8 420 -33 112 -40 141 -52 220 -3 23 -7 50 -10 60 -2 11 -11 49 -19 85
-8 36 -20 86 -27 110 -7 25 -13 47 -14 50 -20 94 -118 354 -191 508 -57 120
-155 301 -176 327 -5 6 -32 46 -61 90 -46 70 -132 190 -147 205 -3 3 -38 44
-78 93 -71 85 -209 226 -386 394 -91 88 -111 120 -145 238 -64 222 -238 370
-632 538 -101 43 -319 122 -363 132 -11 2 -46 11 -76 20 -30 9 -66 18 -80 21
-14 2 -36 9 -50 13 -14 5 -41 12 -60 15 -19 3 -46 8 -60 11 -32 8 -57 12 -100
19 -19 3 -46 8 -60 11 -14 3 -40 8 -57 10 -18 3 -50 8 -70 11 -37 5 -62 9
-150 19 -142 17 -208 23 -318 30 -50 3 -119 8 -155 11 -73 6 -708 13 -713 8z
m678 -88 c113 -6 203 -12 290 -22 28 -3 73 -7 100 -9 56 -4 132 -13 185 -21
19 -3 55 -8 79 -10 24 -2 51 -6 60 -8 9 -3 36 -8 61 -11 25 -3 61 -10 80 -15
19 -5 51 -11 70 -14 216 -33 629 -174 852 -290 151 -78 215 -122 283 -190 71
-72 106 -134 133 -233 11 -39 28 -89 38 -110 11 -23 105 -124 239 -258 215
-214 306 -316 412 -460 58 -80 172 -256 195 -300 9 -16 38 -73 66 -126 44 -82
107 -221 127 -279 1 -3 6 -16 12 -30 14 -35 92 -271 97 -295 3 -11 14 -58 25
-105 22 -93 28 -122 37 -190 3 -25 18 -83 32 -130 25 -84 25 -90 27 -460 l1
-375 -28 -72 c-15 -39 -28 -77 -28 -85 0 -29 -73 -302 -116 -433 -68 -208
-188 -489 -263 -615 -99 -165 -141 -233 -168 -270 -18 -25 -47 -65 -65 -90
-156 -215 -454 -510 -648 -640 -12 -8 -28 -20 -34 -25 -64 -60 -576 -352 -576
-329 0 4 -6 2 -13 -4 -54 -45 -534 -217 -687 -246 -14 -2 -77 -16 -140 -30
-63 -14 -126 -27 -140 -30 -39 -8 -73 -16 -100 -23 -14 -4 -153 -8 -309 -10
-266 -4 -287 -3 -330 16 -26 11 -69 23 -96 26 -28 4 -60 8 -73 10 -12 3 -32 6
-45 8 -12 2 -35 7 -52 10 -16 4 -42 9 -57 12 -68 13 -90 18 -203 46 -66 17
-124 32 -130 33 -12 2 -113 35 -135 43 -8 3 -19 7 -25 9 -36 9 -216 78 -295
114 -52 23 -103 44 -112 47 -10 3 -18 9 -18 14 0 5 -6 9 -14 9 -26 0 -284 147
-391 223 -22 15 -52 36 -67 45 -16 9 -28 20 -28 25 0 4 -5 7 -10 7 -6 0 -35
20 -64 44 -30 24 -80 54 -113 67 l-58 23 -1795 0 c-987 0 -1811 -2 -1830 -6
-80 -14 -214 -78 -255 -122 -5 -6 -41 -31 -80 -56 -38 -25 -71 -48 -73 -52 -2
-5 -8 -8 -12 -8 -5 0 -28 -13 -52 -29 -165 -110 -493 -263 -726 -340 -184 -60
-439 -118 -602 -136 -14 -2 -50 -6 -80 -10 -126 -15 -426 -21 -590 -11 -378
22 -774 116 -1115 264 -122 52 -166 74 -325 159 -73 39 -338 213 -363 237 -9
9 -18 16 -21 16 -3 0 -16 8 -28 19 -275 229 -419 373 -584 581 -32 41 -61 77
-64 80 -3 3 -9 12 -15 21 -5 10 -40 61 -76 115 -96 145 -101 153 -188 319 -75
141 -203 462 -226 565 -2 8 -11 42 -20 75 -22 82 -54 228 -61 278 -4 23 -7 49
-9 57 -1 8 -5 42 -10 75 -4 33 -9 69 -11 79 -19 107 -19 569 0 686 2 14 7 51
11 84 4 32 9 70 11 85 3 14 7 37 9 51 9 50 16 86 32 150 8 36 17 76 20 90 7
41 104 324 114 335 5 5 9 15 9 22 0 21 115 253 181 364 54 92 145 229 184 277
7 9 46 58 86 107 98 122 289 315 429 433 185 155 225 203 234 277 8 65 38 149
73 202 34 51 121 143 136 143 4 0 17 9 29 20 23 22 243 132 348 175 82 33 249
93 315 112 72 20 197 54 215 58 8 2 47 11 85 20 39 9 79 19 90 21 11 2 31 6
45 9 14 2 41 7 60 10 19 3 46 7 60 10 14 2 44 7 66 10 23 3 59 8 80 11 22 3
55 7 74 9 205 21 207 21 405 30 203 9 470 9 705 1 540 -20 553 -21 625 -59
133 -69 256 -127 303 -140 41 -13 386 -15 2428 -16 2640 -2 2440 -7 2502 63
33 37 124 106 164 123 82 36 218 56 458 68 69 4 126 8 127 9 5 4 514 -2 628
-8z"/>
<path d="M8188 10864 c-4 -4 -311 -9 -1078 -19 -168 -2 -474 -6 -680 -9 -206
-4 -526 -9 -710 -11 -184 -3 -450 -8 -590 -10 -536 -10 -725 -14 -725 -15 0
-1 -85 -3 -190 -5 -206 -4 -361 -12 -440 -20 -27 -3 -66 -7 -85 -9 -19 -2 -51
-6 -70 -10 -19 -3 -47 -8 -62 -10 -22 -4 -130 -25 -203 -41 -5 -1 -30 -8 -55
-15 -25 -7 -51 -14 -57 -16 -124 -24 -544 -213 -638 -286 -5 -5 -41 -29 -80
-55 -63 -41 -105 -73 -184 -138 -154 -126 -351 -341 -476 -520 -28 -38 -53
-71 -57 -73 -5 -2 -8 -8 -8 -14 0 -5 -13 -28 -29 -51 -16 -23 -38 -59 -50 -80
-11 -20 -31 -54 -42 -74 -25 -44 -123 -236 -125 -243 0 -3 -11 -27 -23 -55
-78 -172 -167 -455 -186 -590 -3 -16 -7 -45 -10 -63 -8 -53 -17 -124 -20 -172
-5 -65 -5 -308 0 -355 2 -22 7 -65 10 -96 3 -32 10 -81 15 -110 6 -30 13 -67
16 -84 31 -181 138 -471 251 -685 56 -105 194 -328 240 -385 13 -16 27 -35 31
-40 53 -72 98 -132 107 -141 5 -6 35 -40 65 -75 89 -102 293 -299 310 -299 5
0 10 -4 12 -8 2 -4 23 -23 48 -42 25 -19 47 -38 50 -41 3 -4 61 -43 129 -87
194 -128 467 -258 661 -317 160 -48 318 -85 435 -100 28 -4 61 -9 75 -11 170
-27 587 -21 750 11 14 2 45 7 70 10 97 13 372 83 453 115 12 4 67 25 122 46
136 52 430 199 490 247 6 4 39 26 75 50 36 23 67 45 68 50 2 4 10 7 17 7 7 0
15 3 17 8 6 14 154 120 203 145 116 58 140 61 505 59 495 -2 2630 -1 3115 1
373 2 451 -1 530 -17 109 -23 203 -54 260 -86 114 -65 121 -70 212 -155 70
-64 151 -124 170 -125 6 0 13 -3 15 -7 2 -5 23 -19 48 -32 25 -13 82 -44 127
-68 145 -77 415 -187 511 -208 9 -2 53 -13 97 -25 44 -11 89 -22 100 -24 11
-2 34 -6 50 -10 51 -11 75 -15 134 -22 31 -3 65 -8 76 -10 33 -6 236 -18 310
-18 84 1 291 12 322 18 12 3 47 7 77 11 71 7 286 50 351 69 28 9 53 16 57 16
14 1 232 78 273 96 22 10 42 18 45 19 48 14 254 119 370 190 263 159 490 353
678 580 41 50 82 99 91 110 10 12 20 27 24 35 6 14 105 161 124 185 33 42 163
306 216 440 33 83 101 294 111 347 2 13 9 43 15 68 13 59 22 108 26 145 2 17
6 41 9 55 28 130 29 609 0 752 -2 13 -6 37 -8 55 -11 85 -69 321 -87 355 -5
10 -7 18 -5 18 6 0 -25 85 -85 233 -104 259 -265 523 -459 752 -32 39 -246
252 -286 286 -285 242 -632 434 -975 538 -57 18 -111 35 -119 38 -8 4 -18 6
-21 5 -4 -1 -22 3 -40 9 -85 25 -296 61 -434 75 -142 14 -507 17 -2285 19
-1432 1 -2043 5 -2061 13 -15 6 -29 9 -31 6z m-38 -93 c3 -2 799 -4 1770 -5
971 -1 1771 -5 1778 -10 6 -4 12 -4 12 1 0 9 163 9 178 -1 6 -3 13 -2 17 4 4
6 11 7 17 4 5 -4 47 -6 92 -5 44 1 86 2 91 2 84 0 436 -11 452 -15 12 -2 49
-7 82 -11 33 -3 68 -8 79 -10 11 -2 36 -6 55 -9 79 -13 266 -56 327 -76 36
-12 73 -23 83 -25 9 -2 22 -7 27 -10 5 -3 18 -8 27 -10 33 -7 188 -72 303
-129 127 -62 171 -87 275 -155 39 -25 74 -48 79 -50 5 -2 16 -10 25 -17 9 -7
54 -43 101 -81 172 -137 328 -294 453 -458 50 -66 86 -119 137 -202 34 -54 65
-105 71 -113 61 -95 220 -472 243 -580 3 -14 13 -50 21 -80 9 -30 18 -66 21
-80 2 -14 6 -30 9 -37 3 -10 19 -100 40 -238 11 -65 14 -476 5 -530 -5 -27
-11 -72 -13 -100 -24 -252 -142 -622 -288 -900 -45 -85 -177 -299 -209 -338
-5 -6 -25 -31 -42 -53 -18 -23 -49 -61 -68 -85 -69 -87 -269 -281 -370 -359
-25 -19 -46 -38 -48 -42 -2 -5 -10 -8 -17 -8 -7 0 -15 -4 -17 -9 -3 -8 -193
-137 -239 -162 -301 -162 -579 -271 -804 -315 -11 -2 -42 -8 -70 -14 -27 -5
-66 -12 -85 -14 -19 -3 -45 -7 -57 -10 -23 -5 -116 -15 -198 -22 -65 -5 -328
-5 -380 0 -22 3 -69 7 -105 11 -85 8 -143 17 -265 40 -234 44 -499 145 -770
293 -151 82 -191 110 -263 179 -104 101 -305 216 -413 237 -13 2 -46 9 -74 16
-139 32 -215 34 -940 24 -368 -5 -1832 -5 -2570 -1 -627 4 -638 2 -875 -173
-86 -64 -217 -151 -325 -217 -32 -19 -254 -129 -317 -157 -100 -44 -384 -136
-468 -151 -17 -3 -92 -18 -100 -20 -115 -28 -347 -49 -535 -49 -104 1 -260 10
-315 18 -14 2 -47 8 -75 12 -53 8 -61 9 -115 20 -19 3 -44 8 -55 10 -11 1 -63
14 -115 28 -450 120 -840 341 -1164 660 -68 67 -148 150 -177 186 -30 36 -56
67 -59 70 -19 19 -150 201 -150 209 0 5 -4 11 -9 13 -9 3 -138 209 -148 237
-4 9 -9 18 -13 21 -19 16 -170 352 -170 380 0 9 -4 20 -8 26 -28 30 -99 329
-120 499 -9 76 -9 401 0 481 34 300 118 573 271 878 74 149 225 404 257 436 3
3 34 43 70 90 100 132 238 278 375 396 65 57 177 142 200 154 5 3 42 25 80 50
103 66 101 65 220 123 210 104 478 190 690 223 28 4 57 9 65 10 18 4 108 14
165 19 138 13 549 24 1415 40 655 11 933 15 1297 20 205 2 377 6 382 10 5 3
12 1 16 -5 4 -6 11 -8 16 -4 5 3 202 8 437 10 235 3 427 6 429 7 3 3 358 1
363 -2z"/>
<path d="M3969 10016 c-2 -2 -31 -7 -64 -10 -95 -8 -125 -14 -246 -45 -398
-101 -757 -332 -1021 -658 -93 -115 -131 -172 -216 -333 -46 -87 -126 -289
-136 -343 -3 -12 -5 -22 -6 -22 -1 0 -3 -7 -5 -15 -2 -8 -6 -26 -9 -40 -3 -14
-8 -36 -11 -50 -3 -14 -7 -38 -10 -55 -3 -16 -7 -41 -10 -55 -23 -129 -23
-416 1 -545 37 -206 87 -369 156 -511 40 -85 113 -218 130 -239 5 -5 35 -47
68 -92 108 -147 256 -292 420 -414 130 -96 420 -243 520 -264 8 -2 15 -4 15
-5 0 -1 7 -3 15 -5 8 -2 49 -13 90 -25 41 -11 89 -22 105 -25 17 -3 41 -7 55
-10 25 -5 100 -15 155 -21 41 -5 289 -4 345 1 75 7 144 15 160 20 8 2 33 7 55
11 60 9 199 50 305 91 97 36 272 122 278 136 2 4 8 7 13 7 7 0 49 26 144 90
121 82 278 235 419 410 88 109 255 422 270 505 1 6 4 15 8 20 3 6 18 54 33
108 28 102 28 106 40 177 4 25 9 52 10 61 14 77 21 336 11 409 -3 19 -8 58
-11 85 -17 170 -88 403 -171 570 -60 118 -116 215 -126 215 -4 0 -8 5 -8 11 0
36 -199 264 -324 373 -33 28 -67 58 -76 66 -9 8 -24 20 -32 25 -9 6 -60 40
-114 76 -115 76 -222 132 -351 183 -84 33 -209 72 -258 82 -11 2 -38 8 -60 13
-39 9 -79 17 -140 26 -39 7 -411 16 -416 11z m446 -100 c118 -18 246 -52 366
-96 83 -30 318 -144 329 -159 3 -4 24 -18 48 -31 23 -13 42 -27 42 -32 0 -4 5
-8 11 -8 6 0 34 -19 62 -42 29 -24 63 -52 76 -63 81 -66 204 -201 309 -340 93
-123 242 -445 267 -578 3 -12 12 -53 20 -92 24 -110 26 -139 30 -320 3 -163
-9 -309 -34 -403 -6 -20 -12 -48 -15 -62 -2 -14 -5 -25 -6 -25 -1 0 -3 -10 -6
-23 -11 -62 -136 -358 -167 -397 -4 -5 -23 -35 -41 -66 -131 -223 -399 -483
-631 -615 -125 -70 -321 -159 -338 -153 -1 1 -18 -5 -38 -14 -32 -13 -170 -48
-244 -62 -116 -21 -417 -28 -540 -12 -345 43 -699 195 -961 412 -90 75 -227
220 -294 310 -72 98 -130 190 -130 205 0 6 -3 10 -8 10 -4 0 -17 21 -29 48
-12 26 -33 73 -47 104 -15 32 -42 104 -61 160 -41 126 -60 215 -80 383 -7 51
-7 277 0 330 6 56 17 135 21 150 1 6 4 26 8 46 3 20 10 48 15 63 6 14 9 26 6
26 -12 0 83 248 131 345 53 106 152 263 211 334 72 88 304 311 323 311 5 0 10
4 12 8 16 40 428 262 513 276 6 1 15 4 20 8 19 11 240 61 325 73 112 16 399
11 525 -9z"/>
<path d="M3724 9226 c-4 -10 -6 -167 -6 -347 l1 -329 -345 0 c-189 0 -345 -3
-345 -7 -4 -19 -5 -799 -2 -809 3 -7 109 -10 341 -9 185 0 342 0 347 -2 6 -2
10 -133 10 -368 l-1 -365 51 0 c272 -3 759 3 785 9 3 0 5 157 5 349 0 191 1
354 3 364 3 14 36 16 340 16 186 0 347 1 360 1 l22 1 -2 413 -3 412 -350 2
c-192 1 -357 2 -366 2 -14 1 -15 39 -15 336 0 184 -3 337 -6 341 -4 3 -189 7
-412 7 -391 2 -406 1 -412 -17z m747 -79 c0 -7 1 -157 1 -335 1 -225 4 -325
12 -330 6 -4 166 -7 356 -8 190 -1 351 -2 358 -3 9 -1 12 -74 12 -331 l0 -330
-362 -2 -363 -3 0 -360 c1 -216 -3 -363 -9 -367 -5 -3 -158 -7 -340 -8 l-331
-1 0 368 0 368 -347 0 c-192 0 -349 2 -349 5 -3 13 -5 636 -2 646 3 8 100 11
334 10 181 -1 337 2 346 5 14 5 16 41 16 347 l-1 341 334 0 c251 0 334 -3 335
-12z"/>
<path d="M12116 9844 c-130 -31 -267 -120 -345 -222 -32 -43 -89 -148 -96
-180 -3 -10 -9 -37 -15 -62 -36 -146 0 -324 91 -457 37 -54 124 -140 154 -154
11 -5 34 -17 50 -27 43 -27 138 -61 188 -68 102 -14 166 -12 282 11 122 24
300 161 357 275 13 25 28 52 34 60 17 23 45 148 46 210 1 30 -2 82 -6 115 -4
33 -8 61 -7 62 0 3 -21 55 -52 126 -7 15 -15 27 -19 27 -5 0 -8 5 -8 12 0 14
-73 102 -114 138 -51 45 -149 100 -216 122 -83 26 -240 32 -324 12z m259 -78
c138 -34 279 -140 335 -251 14 -27 27 -52 30 -55 7 -6 26 -72 36 -120 9 -48 6
-141 -7 -198 -37 -168 -176 -315 -353 -376 -72 -25 -202 -26 -301 -2 -49 11
-135 49 -135 58 0 5 -7 8 -15 8 -8 0 -46 30 -84 68 -165 163 -199 396 -89 605
70 132 223 244 358 264 19 3 37 7 40 10 6 6 154 -3 185 -11z"/>
<path d="M6954 9745 c-2 -5 -5 -21 -7 -35 -3 -20 -10 -25 -33 -25 l-29 0 0
-69 c0 -69 0 -70 28 -71 34 -2 41 -9 42 -43 l0 -27 135 0 135 0 3 -68 c2 -49
0 -67 -10 -68 -22 -1 -141 -2 -172 0 -25 1 -28 4 -24 26 7 34 -7 41 -77 41
l-60 -1 -3 -32 c-3 -34 -4 -33 48 -37 10 -1 15 -12 15 -34 0 -25 4 -32 20 -33
11 0 87 -1 168 -2 158 -2 168 1 164 48 -2 15 5 19 32 20 l34 1 1 67 c1 37 -2
68 -6 68 -5 1 -16 2 -25 3 -27 2 -44 16 -42 34 3 37 0 38 -132 37 -71 -1 -132
2 -135 7 -8 12 -9 117 -2 124 11 10 198 10 199 -1 1 -5 3 -17 4 -25 1 -8 3
-20 4 -26 1 -8 94 -12 133 -5 3 0 6 16 5 34 -2 29 -5 32 -32 32 -27 0 -30 4
-33 33 -2 17 -9 32 -15 33 -89 6 -330 2 -333 -6z"/>
<path d="M7439 9755 c-5 -2 -2 -460 3 -468 9 -16 330 -17 340 -2 4 5 8 20 8
31 0 23 24 39 42 28 14 -9 27 15 22 42 -4 20 0 23 33 26 l37 3 -1 80 c-2 132
1 123 -35 127 -29 3 -33 6 -33 33 0 27 -4 31 -35 35 -30 4 -34 8 -35 35 l0 30
-172 0 c-95 1 -173 1 -174 0z m273 -74 c4 -1 6 -14 4 -31 -2 -17 1 -31 8 -31
15 -2 39 -6 52 -8 8 -1 12 -163 5 -202 -1 -3 -14 -4 -31 -1 -31 4 -33 1 -33
-50 0 -15 -10 -18 -68 -18 l-69 0 -1 55 c0 30 0 75 0 100 0 25 0 78 0 118 l1
72 63 -2 c34 -1 65 -2 69 -2z"/>
<path d="M8140 9750 c-5 -3 -10 -19 -12 -35 -3 -26 -7 -30 -33 -30 -25 0 -30
-4 -32 -29 -3 -36 -6 -39 -42 -39 l-28 0 0 -174 c1 -159 2 -173 19 -174 10 0
39 -1 66 -2 l47 -1 2 55 c0 30 1 61 2 70 1 13 17 15 101 15 64 0 100 -4 101
-10 1 -6 1 -37 1 -68 0 -62 -3 -60 63 -60 14 0 38 0 53 1 l28 1 -2 168 c-1 92
-2 170 -3 173 -1 4 -16 6 -33 6 -23 -1 -32 3 -30 13 7 31 -8 59 -28 55 -35 -7
-47 3 -42 35 3 21 0 30 -9 31 -71 3 -183 3 -189 -1z m131 -80 c1 -8 1 -22 0
-31 -2 -19 14 -27 47 -24 21 2 22 -2 22 -69 l0 -71 -102 1 -102 1 -2 66 c0 37
3 68 7 68 5 1 18 2 29 3 24 1 40 23 33 44 -7 17 7 27 41 27 16 0 26 -6 27 -15z"/>
<path d="M9123 9752 c-21 -3 -22 -8 -20 -70 l2 -67 70 -3 70 -3 -1 34 -2 34
104 1 104 0 0 -34 c0 -22 -5 -34 -12 -33 -44 5 -57 -2 -60 -33 -3 -29 -7 -33
-30 -32 -16 0 -29 -2 -29 -5 -1 -3 -3 -16 -4 -27 -3 -33 -13 -43 -36 -37 -12
3 -24 1 -28 -5 -5 -8 -6 -129 -2 -192 1 -15 6 -15 117 -11 20 1 21 7 22 84 1
134 -2 125 32 122 30 -3 32 0 34 45 1 21 6 25 34 25 32 -1 37 6 33 48 -2 13 5
17 33 17 l36 0 0 73 0 72 -223 0 c-122 0 -232 -1 -244 -3z"/>
<path d="M8759 9733 c-1 -10 -2 -25 -3 -33 0 -9 -13 -16 -33 -18 -30 -3 -33
-6 -33 -38 0 -32 2 -34 33 -34 l34 0 0 -135 c0 -92 -3 -135 -11 -136 -6 -1
-37 -1 -68 -2 l-58 -1 0 -36 0 -36 208 1 207 0 3 33 c4 35 1 36 -95 32 l-43
-2 -1 94 c0 51 -1 145 -2 208 l-2 115 -67 3 c-60 3 -68 1 -69 -15z"/>
<path d="M10857 8744 c-1 -1 -22 -4 -47 -7 -71 -10 -119 -26 -200 -68 -210
-109 -335 -323 -325 -558 2 -50 6 -95 10 -101 3 -6 9 -22 11 -37 6 -34 59
-139 90 -180 61 -80 138 -145 224 -188 98 -50 151 -60 290 -59 163 1 314 66
428 185 29 30 52 57 52 61 0 4 7 13 15 21 17 17 69 129 79 172 15 59 18 81 18
145 1 71 -13 158 -33 205 -7 17 -13 33 -13 36 -4 24 -64 115 -111 167 -62 68
-123 114 -199 149 -50 24 -147 55 -162 52 -5 -1 -11 0 -14 1 -7 2 -110 6 -113
4z m173 -101 c179 -49 329 -202 376 -382 59 -231 -56 -477 -271 -580 -94 -46
-144 -56 -260 -54 -148 2 -269 56 -371 166 -125 135 -172 331 -117 491 9 28
17 53 18 56 0 3 17 33 38 67 86 141 241 234 427 256 38 4 99 -3 160 -20z"/>
<path d="M13620 8700 c-19 -5 -48 -11 -65 -14 -42 -9 -153 -66 -206 -106 -151
-115 -243 -305 -234 -488 5 -102 8 -122 30 -182 42 -119 137 -238 243 -307 53
-34 142 -77 142 -67 0 2 8 0 19 -5 47 -26 208 -34 298 -15 170 35 317 142 407
295 29 48 55 110 62 144 24 129 18 242 -19 345 -20 58 -84 163 -124 205 -84
89 -174 146 -283 180 -61 18 -216 27 -270 15z m190 -81 c30 -6 62 -13 70 -16
8 -4 17 -7 20 -7 3 -1 32 -14 65 -30 72 -36 179 -140 219 -215 48 -89 64 -158
61 -263 -3 -112 -5 -123 -50 -213 -64 -129 -185 -229 -327 -270 -176 -50 -383
1 -507 125 -74 74 -87 91 -116 155 -73 158 -65 336 19 479 50 85 171 193 231
206 6 1 16 7 24 13 15 12 13 12 96 30 75 17 125 18 195 6z"/>
<path d="M7245 8308 c-11 -6 -24 -16 -30 -20 -5 -5 -93 -67 -195 -138 -102
-70 -205 -143 -230 -162 -25 -18 -49 -36 -55 -40 -184 -131 -445 -340 -506
-405 -62 -65 -88 -174 -65 -273 12 -53 68 -149 113 -196 66 -67 89 -85 153
-116 77 -38 121 -47 198 -43 106 5 152 30 397 214 55 42 107 81 115 88 8 6 35
28 60 48 96 78 169 143 261 235 78 78 100 106 118 154 27 73 35 115 35 196 0
171 -28 220 -214 368 -52 42 -101 82 -108 89 -16 16 -21 16 -47 1z m37 -101
c7 -7 29 -24 48 -37 101 -71 177 -153 194 -209 21 -75 11 -204 -23 -283 -16
-38 -132 -163 -221 -238 -14 -12 -38 -34 -55 -48 -49 -44 -203 -164 -315 -246
-58 -42 -111 -81 -118 -87 -35 -29 -119 -61 -165 -64 -192 -10 -406 197 -391
378 7 78 58 136 258 292 21 17 44 35 50 40 43 40 710 515 723 515 1 0 8 -6 15
-13z"/>
<path d="M8904 8258 c-49 -35 -109 -76 -134 -93 -25 -16 -46 -33 -48 -37 -2
-5 -10 -8 -17 -8 -7 0 -15 -3 -17 -8 -1 -4 -57 -45 -123 -92 -66 -46 -124 -88
-130 -92 -5 -5 -58 -43 -116 -86 -58 -42 -130 -98 -160 -122 -29 -25 -65 -54
-79 -65 -76 -61 -151 -143 -173 -187 -40 -80 -30 -222 20 -297 10 -14 18 -29
18 -32 0 -4 20 -30 44 -59 102 -120 241 -188 365 -177 109 10 139 23 264 116
45 34 86 61 91 61 5 0 11 3 13 8 2 4 53 45 113 92 122 93 121 93 169 135 19
17 60 53 92 80 159 138 207 204 235 321 17 73 19 196 4 239 -34 96 -64 132
-205 251 -58 48 -111 94 -118 101 -7 7 -15 13 -16 13 -1 0 -43 -28 -92 -62z
m166 -108 c86 -69 155 -141 175 -185 34 -75 24 -214 -23 -315 -32 -69 -302
-312 -516 -465 -16 -11 -33 -24 -40 -30 -36 -32 -168 -122 -211 -144 -72 -37
-177 -36 -255 2 -54 27 -110 73 -160 133 -72 84 -96 212 -57 295 19 38 154
165 251 234 16 11 33 25 40 31 6 5 38 30 71 54 33 24 65 48 70 53 10 8 207
151 242 175 302 209 337 231 347 219 6 -8 36 -33 66 -57z"/>
<path d="M12290 7579 c-78 -12 -94 -17 -151 -38 -75 -29 -183 -105 -241 -172
-46 -52 -115 -173 -123 -214 -2 -11 -4 -20 -6 -20 -4 0 -10 -57 -14 -140 -14
-320 245 -594 573 -609 103 -4 204 13 264 45 10 5 23 9 28 9 46 0 227 161 265
236 11 21 22 41 25 44 6 6 38 95 46 130 3 14 8 63 11 110 9 168 -48 311 -177
440 -73 73 -172 136 -245 155 -16 5 -32 9 -35 10 -52 16 -162 24 -220 14z
m235 -104 c47 -16 123 -55 153 -79 135 -109 210 -256 210 -410 0 -76 -13 -153
-29 -170 -5 -6 -9 -16 -9 -24 0 -22 -65 -123 -107 -166 -55 -57 -147 -113
-222 -137 -98 -31 -234 -29 -329 4 -220 76 -353 258 -355 482 -1 50 2 101 5
115 14 55 39 112 71 162 36 57 135 158 153 158 6 0 17 6 24 14 17 21 139 66
196 73 27 3 50 6 51 7 8 7 146 -15 188 -29z"/>
</g>
</svg>
